<svg width="1920" height="768" viewBox="0 0 1920 768" fill="none" xmlns="http://www.w3.org/2000/svg">
<path d="M1634.41 59.4732C811.94 311.354 734.092 150.105 203.706 150.105C-326.681 150.105 -128.909 638.561 -128.909 638.561L1929.56 658.008C1929.56 658.008 2456.88 -192.407 1634.41 59.4732Z" fill="#F1F6F9" fill-opacity="0.5"/>
<path d="M1647.39 44.8686C824.922 287.184 747.075 132.058 216.689 132.058C-313.698 132.058 -115.927 601.966 -115.927 601.966L1942.54 620.674C1942.54 620.674 2469.86 -197.447 1647.39 44.8686Z" fill="#F1F6F9" fill-opacity="0.2"/>
<path d="M1623.72 85.6182C789.895 353.577 604.511 141.016 144.064 167.222C-316.384 193.428 -102.294 768 -102.294 768L1918.76 768C1918.76 768 2457.55 -182.34 1623.72 85.6182Z" fill="url(#paint0_linear)"/>
<defs>
<linearGradient id="paint0_linear" x1="955.268" y1="245.192" x2="971.868" y2="821.268" gradientUnits="userSpaceOnUse">
<stop stop-color="#E7F4FF"/>
<stop offset="1" stop-color="white"/>
</linearGradient>
</defs>
</svg>
