<svg width="19" height="24" viewBox="0 0 19 24" fill="none" xmlns="http://www.w3.org/2000/svg">
<path d="M9.88982 1.05382C10.6862 1.05382 11.3274 1.67487 11.3274 2.44432C11.3274 3.2105 10.6862 3.83351 9.88982 3.83351C9.10018 3.83351 8.45226 3.2105 8.45226 2.44432C8.45226 1.67487 9.10018 1.05382 9.88982 1.05382ZM18.8864 15.4478C18.8864 15.4478 18.8594 13.2493 18.036 11.9176C17.5771 13.0492 16.8549 15.3576 16.8549 15.3576L17.7458 14.9085C17.6985 15.0902 17.6446 15.2667 17.5973 15.4374C15.8156 21.1765 10.6255 20.9235 10.6255 14.7986V8.47178L11.3139 7.80563L15.5658 7.49706V7.84354C15.5658 8.22402 15.8897 8.53258 16.2812 8.53258H16.6254C17.0236 8.53258 17.3408 8.22402 17.3408 7.84354V6.18501C17.3408 5.80388 17.0236 5.49597 16.6254 5.49597H16.2812C15.8897 5.49597 15.5658 5.80388 15.5658 6.18501V6.53083L11.3139 6.22227L10.6255 5.55611V4.78339C11.6581 4.4781 12.414 3.54652 12.414 2.44432C12.414 1.0937 11.2869 0 9.88982 0C8.49276 0 7.36567 1.0937 7.36567 2.44432C7.36567 3.54652 8.12158 4.47875 9.15419 4.78339V5.55611L8.46577 6.22227L4.21381 6.53083V6.18501C4.21381 5.80388 3.8899 5.49597 3.49845 5.49597H3.15424C2.75604 5.49597 2.43884 5.80388 2.43884 6.18501V7.84354C2.43884 8.22402 2.75604 8.53258 3.15424 8.53258H3.49845C3.8899 8.53258 4.21381 8.22402 4.21381 7.84354V7.49706L8.46577 7.80563L9.15419 8.47048V14.7986C9.15419 20.9235 3.96413 21.1765 2.18237 15.4374C2.13513 15.2667 2.08115 15.0902 2.03391 14.9085L2.92479 15.3576C2.92479 15.3576 2.2026 13.0492 1.74366 11.9176C0.920272 13.2493 0.893311 15.4478 0.893311 15.4478L1.48723 14.9176C1.48048 15.0856 1.48048 15.2504 1.48048 15.4119C1.52772 18.2739 3.01255 20.0442 5.55696 21.0837C8.67504 22.3585 9.88982 22.9122 9.88982 24C9.88982 22.9122 11.1047 22.3585 14.2228 21.0837C16.7672 20.0442 18.2519 18.2739 18.2992 15.4119C18.2992 15.2504 18.2992 15.0856 18.2925 14.9176L18.8864 15.4478Z" fill="#002E6D"/>
</svg>
