<svg width="13" height="16" viewBox="0 0 13 16" fill="none" xmlns="http://www.w3.org/2000/svg">
<path d="M6.25988 0.70255C6.79081 0.70255 7.21825 1.11658 7.21825 1.62955C7.21825 2.14034 6.79081 2.55568 6.25988 2.55568C5.73345 2.55568 5.30151 2.14034 5.30151 1.62955C5.30151 1.11658 5.73345 0.70255 6.25988 0.70255ZM12.2576 10.2985C12.2576 10.2985 12.2396 8.83286 11.6907 7.94509C11.3847 8.6995 10.9033 10.2384 10.9033 10.2384L11.4972 9.93898C11.4657 10.0601 11.4297 10.1778 11.3982 10.2916C10.2104 14.1177 6.7503 13.949 6.7503 9.86577V5.64785L7.20925 5.20375L10.0439 4.99804V5.22903C10.0439 5.48268 10.2598 5.68839 10.5208 5.68839H10.7503C11.0157 5.68839 11.2272 5.48268 11.2272 5.22903V4.12334C11.2272 3.86925 11.0157 3.66398 10.7503 3.66398H10.5208C10.2598 3.66398 10.0439 3.86925 10.0439 4.12334V4.35389L7.20925 4.14818L6.7503 3.70407V3.18893C7.43871 2.9854 7.94265 2.36435 7.94265 1.62955C7.94265 0.729134 7.19126 0 6.25988 0C5.32851 0 4.57711 0.729134 4.57711 1.62955C4.57711 2.36435 5.08105 2.98583 5.76946 3.18893V3.70407L5.31052 4.14818L2.47587 4.35389V4.12334C2.47587 3.86925 2.25993 3.66398 1.99897 3.66398H1.76949C1.50403 3.66398 1.29256 3.86925 1.29256 4.12334V5.22903C1.29256 5.48268 1.50403 5.68839 1.76949 5.68839H1.99897C2.25993 5.68839 2.47587 5.48268 2.47587 5.22903V4.99804L5.31052 5.20375L5.76946 5.64698V9.86577C5.76946 13.949 2.30942 14.1177 1.12158 10.2916C1.09008 10.1778 1.0541 10.0601 1.02261 9.93898L1.61653 10.2384C1.61653 10.2384 1.13507 8.6995 0.829108 7.94509C0.280182 8.83286 0.262207 10.2985 0.262207 10.2985L0.658156 9.94509C0.653657 10.0571 0.653652 10.1669 0.653652 10.2746C0.685148 12.1826 1.67503 13.3628 3.3713 14.0558C5.45003 14.9056 6.25988 15.2748 6.25988 16C6.25988 15.2748 7.06979 14.9056 9.14851 14.0558C10.8448 13.3628 11.8346 12.1826 11.8661 10.2746C11.8661 10.1669 11.8662 10.0571 11.8617 9.94509L12.2576 10.2985Z" fill="white"/>
</svg>
